<?xml version="1.0" encoding="UTF-8"?>
<svg width="276px" height="92px" viewBox="0 0 276 92" version="1.1" xmlns="http://www.w3.org/2000/svg" xmlns:xlink="http://www.w3.org/1999/xlink">
    <title>Group 3</title>
    <g id="Page-1" stroke="none" stroke-width="1" fill="none" fill-rule="evenodd">
        <g id="Artboard" transform="translate(-53.000000, -39.000000)">
            <g id="Group-3" transform="translate(53.000000, 39.000000)">
                <rect id="Rectangle" fill-opacity="0.85" fill="#FFFFFF" x="0" y="0" width="276" height="92"></rect>
                <rect id="Rectangle" fill-opacity="0.85" fill="#FFFFFF" x="0" y="0" width="276" height="92"></rect>
                <g id="logo_inrim_pdf_1" transform="translate(0.000000, 0.000000)">
                    <polygon id="Fill-1" fill="#1F4257" points="0 92 88.2218446 92 88.2218446 0 0 0"></polygon>
                    <polygon id="Fill-2" fill="#FFFFFE" points="79.6098465 52.4917058 83.6500184 52.4917058 83.6500184 7.63816105 79.6098465 7.63816105"></polygon>
                    <polygon id="Fill-3" fill="#2B2B2B" points="117.078716 52.4917058 98.3427495 19.836423 97.96694 17.8986785 97.96694 52.4917058 93.9256767 52.4917058 93.9256767 7.63816105 96.026097 7.63816105 114.760408 40.3250988 115.166253 42.2321742 115.166253 7.63816105 119.207516 7.63816105 119.207516 52.4917058"></polygon>
                    <path d="M150.598963,52.4917058 L138.412989,33.3510568 L132.866481,33.3510568 L132.866481,52.4917058 L128.827506,52.4917058 L128.827506,7.63816105 L143.080696,7.63816105 C144.605096,7.63816105 146.036186,7.92671708 147.372558,8.4989348 C148.709528,9.07245532 149.877837,9.85907422 150.881145,10.8604816 C151.884032,11.8607975 152.673045,13.0353737 153.248573,14.3802315 C153.821494,15.723892 154.108149,17.1581863 154.108149,18.6806847 L154.108149,22.3075471 C154.108149,23.831454 153.821494,25.2643751 153.248573,26.6094089 C152.673045,27.9543722 151.884032,29.12754 150.881145,30.1278559 C149.877837,31.128383 148.709528,31.9165864 147.372558,32.4903886 C146.036186,33.0626064 144.605096,33.3510568 143.080696,33.3510568 L155.267338,52.4917058 L150.598963,52.4917058 Z M150.065794,18.6806847 C150.065794,17.6792069 149.877837,16.7459684 149.50414,15.8817792 C149.128366,15.0143153 148.615725,14.2556541 147.96805,13.597521 C147.321255,12.9414302 146.564389,12.4242124 145.695235,12.0484381 C144.831257,11.6742484 143.897843,11.4865021 142.892245,11.4865021 L132.866481,11.4865021 L132.866481,29.501765 L142.892245,29.501765 C143.897948,29.501765 144.831257,29.3131032 145.695235,28.9385261 C146.564389,28.5641251 147.321255,28.0489848 147.96805,27.3909221 C148.615936,26.732789 149.128366,25.9742335 149.50414,25.106171 C149.877837,24.2432846 150.065583,23.3106447 150.065583,22.3075471 L150.065794,18.6806847 Z" id="Fill-4" fill="#2B2B2B"></path>
                    <polygon id="Fill-5" fill="#D2B93D" points="162.659689 12.768367 167.142502 12.768367 167.142502 7.63816105 162.659689 7.63816105"></polygon>
                    <polygon id="Fill-6" fill="#2B2B2B" points="162.975182 52.4917058 166.827009 52.4917058 166.827009 20.4629364 162.975182 20.4629364"></polygon>
                    <polygon id="Fill-7" fill="#2B2B2B" points="204.767216 52.4917058 204.767216 21.7470196 204.485632 23.6526162 194.05353 52.4917058 191.92149 52.4917058 181.395867 23.6526162 181.146924 21.7470196 181.146924 52.4917058 177.104393 52.4917058 177.104393 7.63816105 179.202102 7.63816105 192.830573 44.4217494 192.956524 46.0805153 193.081101 44.4217494 206.677601 7.63816105 208.809571 7.63816105 208.809571 52.4917058"></polygon>
                    <polygon id="Fill-8" fill="#696C69" points="95.4905342 70.5835179 96.613702 70.5835179 96.613702 58.1255379 95.4905342 58.1255379"></polygon>
                    <path d="M106.307495,67.7002463 C106.307495,68.1235557 106.22003,68.5208088 106.05077,68.8904915 C105.879784,69.261301 105.649538,69.5852795 105.365066,69.864575 C105.076193,70.1416522 104.742637,70.3606308 104.361546,70.5198208 C103.983589,70.6783418 103.582216,70.757391 103.156653,70.757391 L102.26183,70.757391 C101.838521,70.757391 101.434894,70.6783418 101.054613,70.5198208 C100.675916,70.3606308 100.342254,70.1416522 100.0556,69.864575 C99.7666565,69.5852795 99.5386638,69.261301 99.3665865,68.8904915 C99.1962345,68.5208088 99.1109881,68.1235557 99.1109881,67.7002463 L99.1109881,67.205282 L100.23574,67.0224301 L100.23574,67.7002463 C100.23574,67.9796122 100.288663,68.238133 100.405635,68.477499 C100.515635,68.7188368 100.66905,68.9305267 100.859261,69.1099983 C101.05243,69.2945404 101.274577,69.4372867 101.525704,69.5428852 C101.780246,69.6461949 102.045034,69.6986949 102.322112,69.6986949 L103.103238,69.6986949 C103.384117,69.6986949 103.647814,69.6461949 103.896547,69.5428852 C104.147673,69.4372867 104.36894,69.2945404 104.559187,69.1099983 C104.749327,68.9305267 104.901651,68.719048 105.017531,68.477499 C105.127496,68.238133 105.186087,67.9796122 105.186087,67.7002463 L105.186299,67.3254579 C105.186299,66.8965851 105.101475,66.5416559 104.932672,66.2588745 C104.765701,65.9750016 104.54063,65.7335582 104.263342,65.5308471 C103.983589,65.3344389 103.67035,65.1635588 103.31873,65.0241223 C102.968907,64.8847915 102.606477,64.7459536 102.237464,64.6065875 C101.862675,64.4688764 101.502676,64.3129611 101.152711,64.1459894 C100.802395,63.977891 100.485599,63.7706729 100.207994,63.5155675 C99.9309169,63.2661312 99.7052481,62.9558146 99.5364807,62.5916953 C99.3710935,62.22659 99.2853542,61.7790553 99.2853542,61.2451474 L99.2853542,61.0109927 C99.2853542,60.58881 99.3665865,60.1904654 99.5228891,59.8196559 C99.6842974,59.4483535 99.9032761,59.1248679 100.182149,58.8474034 C100.459226,58.5678262 100.788099,58.348425 101.16,58.1914182 C101.535986,58.0318409 101.932746,57.9516649 102.35764,57.9516649 L103.156829,57.9516649 C103.582322,57.9516649 103.978976,58.0318409 104.350384,58.1914182 C104.720595,58.348425 105.04725,58.5678262 105.324925,58.8474034 C105.602707,59.1248679 105.822812,59.4483535 105.980699,59.8196559 C106.139995,60.1904654 106.22003,60.58881 106.22003,61.0109927 L106.22003,61.3304994 L105.099257,61.5133513 L105.099257,61.0109927 C105.099257,60.7316268 105.04725,60.4727186 104.941862,60.2315569 C104.836264,59.9922261 104.698025,59.7812404 104.516757,59.6028604 C104.335701,59.4233887 104.124715,59.2811705 103.884751,59.1762763 C103.643307,59.0719806 103.384117,59.0194455 103.103026,59.0194455 L102.409541,59.0194455 C102.131865,59.0194455 101.87176,59.0719806 101.629507,59.1762763 C101.388169,59.2811705 101.17588,59.4233887 100.994824,59.6028604 C100.810177,59.7812404 100.66905,59.9922261 100.564649,60.2315569 C100.459226,60.4727186 100.407818,60.7316268 100.407818,61.0109927 L100.407818,61.2451474 C100.407818,61.6437033 100.490282,61.978879 100.658874,62.2525407 C100.831127,62.525146 101.052219,62.757681 101.330599,62.9535259 C101.610563,63.1464482 101.923556,63.3134551 102.272992,63.4556732 C102.625245,63.5967998 102.987463,63.7407434 103.358765,63.8908488 C103.727955,64.0370811 104.091265,64.2024682 104.442391,64.3784187 C104.791757,64.5534186 105.105947,64.7701789 105.385911,65.0263054 C105.663094,65.287115 105.886474,65.5996147 106.05746,65.9705298 C106.225136,66.3413392 106.307495,66.7922895 106.307495,67.3254579 L106.307495,67.7002463 Z" id="Fill-9" fill="#696C69"></path>
                    <polygon id="Fill-10" fill="#696C69" points="111.747383 59.1943397 111.747383 70.5835179 110.622631 70.5835179 110.622631 59.1943397 107.649043 59.1943397 107.649043 58.1255379 114.722592 58.1255379 114.722592 59.1943397"></polygon>
                    <polygon id="Fill-11" fill="#696C69" points="116.50759 70.5835179 117.628997 70.5835179 117.628997 58.1255379 116.50759 58.1255379"></polygon>
                    <polygon id="Fill-12" fill="#696C69" points="123.51128 59.1943397 123.51128 70.5835179 122.389802 70.5835179 122.389802 59.1943397 119.413995 59.1943397 119.413995 58.1255379 126.489938 58.1255379 126.489938 59.1943397"></polygon>
                    <path d="M134.872782,68.8904915 C134.714683,69.261301 134.497008,69.5852795 134.217043,69.864575 C133.939966,70.1416522 133.613065,70.3606308 133.241164,70.5198208 C132.870988,70.6783418 132.475425,70.757391 132.050531,70.757391 L131.160497,70.757391 C130.737716,70.757391 130.341061,70.6783418 129.964583,70.5198208 C129.59328,70.3606308 129.264196,70.1416522 128.987119,69.864575 C128.708352,69.5852795 128.487049,69.261301 128.327472,68.8904915 C128.171556,68.5208088 128.088106,68.1235557 128.088106,67.7002463 L128.088106,58.1255379 L129.212893,58.1255379 L129.212893,67.7002463 C129.212893,67.9796122 129.264196,68.238133 129.369795,68.477499 C129.474302,68.7188368 129.615217,68.9305267 129.799794,69.1099983 C129.980956,69.2945404 130.195428,69.4372867 130.434793,69.5428852 C130.676835,69.6461949 130.936941,69.6986949 131.214617,69.6986949 L131.998524,69.6986949 C132.2762,69.6986949 132.535214,69.6461949 132.777256,69.5428852 C133.016587,69.4372867 133.225319,69.2945404 133.406551,69.1099983 C133.587818,68.9305267 133.728769,68.719048 133.834367,68.477499 C133.939966,68.238133 133.98905,67.9796122 133.98905,67.7002463 L133.98905,58.1255379 L135.112746,58.1255379 L135.112746,67.7002463 C135.112746,68.1235557 135.034789,68.5208088 134.872782,68.8904915" id="Fill-13" fill="#696C69"></path>
                    <polygon id="Fill-14" fill="#696C69" points="140.82105 59.1943397 140.82105 70.5835179 139.698481 70.5835179 139.698481 59.1943397 136.723308 59.1943397 136.723308 58.1255379 143.799111 58.1255379 143.799111 59.1943397"></polygon>
                    <path d="M152.181883,68.8904915 C152.02287,69.261301 151.803891,69.5852795 151.526215,69.864575 C151.249138,70.1416522 150.921181,70.3606308 150.552061,70.5198208 C150.178083,70.6783418 149.781816,70.757391 149.358506,70.757391 L148.472592,70.757391 C148.049282,70.757391 147.647945,70.6783418 147.276642,70.5198208 C146.900164,70.3606308 146.572277,70.1416522 146.295199,69.864575 C146.015446,69.5852795 145.798651,69.261301 145.639461,68.8904915 C145.477559,68.5208088 145.399707,68.1235557 145.399707,67.7002463 L145.399707,61.0109927 C145.399707,60.58881 145.477559,60.1904654 145.639461,59.8196559 C145.798651,59.4483535 146.015235,59.1248679 146.295199,58.8474034 C146.572382,58.5678262 146.900164,58.348425 147.276642,58.1914182 C147.64805,58.0318409 148.049282,57.9516649 148.47238,57.9516649 L149.358506,57.9516649 C149.781816,57.9516649 150.177871,58.0318409 150.552061,58.1914182 C150.921251,58.348425 151.249138,58.5678262 151.526215,58.8474034 C151.803891,59.1248679 152.02287,59.4483535 152.181883,59.8196559 C152.341672,60.1904654 152.421813,60.58881 152.421813,61.0109927 L152.421813,67.7002463 C152.421813,68.1235557 152.341672,68.5208088 152.181883,68.8904915 Z M151.300441,61.0109927 C151.300441,60.7316268 151.249138,60.4727186 151.143539,60.2315569 C151.038152,59.9922261 150.897026,59.7812404 150.715758,59.6028604 C150.536885,59.4233887 150.3259,59.2811705 150.08435,59.1762763 C149.844492,59.0719806 149.584281,59.0194455 149.307203,59.0194455 L148.524,59.0194455 C148.245127,59.0194455 147.985902,59.0719806 147.746747,59.1762763 C147.504705,59.2811705 147.293614,59.4233887 147.107875,59.6028604 C146.926819,59.7812404 146.783368,59.9922261 146.677875,60.2315569 C146.572382,60.4727186 146.52446,60.7316268 146.52446,61.0109927 L146.52446,67.7002463 C146.52446,67.9796122 146.572277,68.238133 146.677875,68.477499 C146.783368,68.7188368 146.926819,68.9305267 147.107875,69.1099983 C147.293614,69.2945404 147.504635,69.4372867 147.746747,69.5428852 C147.986113,69.6461949 148.245127,69.6986949 148.523789,69.6986949 L149.307203,69.6986949 C149.584281,69.6986949 149.844386,69.6461949 150.08435,69.5428852 C150.3259,69.4372867 150.536885,69.2945404 150.715758,69.1099983 C150.897026,68.9305267 151.038152,68.719048 151.143539,68.477499 C151.249138,68.238133 151.300441,67.9796122 151.300441,67.7002463 L151.300441,61.0109927 Z" id="Fill-15" fill="#696C69"></path>
                    <polygon id="Fill-16" fill="#696C69" points="165.631553 70.5835179 160.426593 61.5133513 160.324586 60.9754646 160.324586 70.5835179 159.199834 70.5835179 159.199834 58.1255379 159.784305 58.1255379 164.988279 67.205282 165.102856 67.7357744 165.102856 58.1255379 166.224228 58.1255379 166.224228 70.5835179"></polygon>
                    <path d="M173.761086,67.6826759 L169.809083,67.6826759 L168.991796,70.5835179 L167.8281,70.5835179 L171.481793,58.1255379 L172.071581,58.1255379 L175.745556,70.5835179 L174.588022,70.5835179 L173.761086,67.6826759 Z M170.114294,66.6139094 L173.464361,66.6139094 L171.820455,60.8709576 L171.787145,60.4111342 L171.750384,60.8709576 L170.114294,66.6139094 Z" id="Fill-17" fill="#696C69"></path>
                    <polygon id="Fill-18" fill="#696C69" points="176.631964 70.5835179 176.631964 70.0548213 182.194775 59.1943397 176.807456 59.1943397 176.807456 58.1255379 183.65421 58.1255379 183.65421 58.6645163 178.094814 69.5152092 183.65421 69.5152092 183.65421 70.5835179"></polygon>
                    <polygon id="Fill-19" fill="#696C69" points="185.794348 70.5835179 186.919136 70.5835179 186.919136 58.1255379 185.794348 58.1255379"></polygon>
                    <path d="M196.375253,68.8904915 C196.213281,69.261301 195.996662,69.5852795 195.71719,69.864575 C195.437331,70.1416522 195.113951,70.3606308 194.742649,70.5198208 C194.369058,70.6783418 193.972298,70.757391 193.548988,70.757391 L192.662968,70.757391 C192.239764,70.757391 191.838427,70.6783418 191.464941,70.5198208 C191.091244,70.3606308 190.763357,70.1416522 190.485682,69.864575 C190.208604,69.5852795 189.989626,69.261301 189.829943,68.8904915 C189.670823,68.5208088 189.590682,68.1235557 189.590682,67.7002463 L189.590682,61.0109927 C189.590682,60.58881 189.670823,60.1904654 189.829943,59.8196559 C189.989837,59.4483535 190.208604,59.1248679 190.485682,58.8474034 C190.763357,58.5678262 191.091244,58.348425 191.464941,58.1914182 C191.838638,58.0318409 192.239659,57.9516649 192.662968,57.9516649 L193.548988,57.9516649 C193.972298,57.9516649 194.369058,58.0318409 194.742649,58.1914182 C195.113951,58.348425 195.437331,58.5678262 195.71719,58.8474034 C195.996662,59.1248679 196.213281,59.4483535 196.375253,59.8196559 C196.53226,60.1904654 196.612224,60.58881 196.612224,61.0109927 L196.612401,67.7002463 C196.612401,68.1235557 196.532048,68.5208088 196.375253,68.8904915 Z M195.49043,61.0109927 C195.49043,60.7316268 195.437331,60.4727186 195.334022,60.2315569 C195.230817,59.9922261 195.085113,59.7812404 194.909128,59.6028604 C194.726769,59.4233887 194.516875,59.2811705 194.274621,59.1762763 C194.035467,59.0719806 193.777474,59.0194455 193.497685,59.0194455 L192.714271,59.0194455 C192.436102,59.0194455 192.177088,59.0719806 191.937159,59.1762763 C191.692899,59.2811705 191.484589,59.4233887 191.301244,59.6028604 C191.120188,59.7812404 190.974449,59.9922261 190.86885,60.2315569 C190.763357,60.4727186 190.711456,60.7316268 190.711456,61.0109927 L190.711456,67.7002463 C190.711456,67.9796122 190.763357,68.238133 190.86885,68.477499 C190.974449,68.7188368 191.119977,68.9305267 191.301244,69.1099983 C191.484589,69.2945404 191.692899,69.4372867 191.937159,69.5428852 C192.177088,69.6461949 192.436102,69.6986949 192.714271,69.6986949 L193.497685,69.6986949 C193.777685,69.6986949 194.035467,69.6461949 194.274621,69.5428852 C194.516875,69.4372867 194.726769,69.2945404 194.909128,69.1099983 C195.085289,68.9305267 195.230712,68.719048 195.334022,68.477499 C195.437331,68.238133 195.490324,67.9796122 195.490324,67.7002463 L195.49043,61.0109927 Z" id="Fill-20" fill="#696C69"></path>
                    <polygon id="Fill-21" fill="#696C69" points="205.723799 70.5835179 200.519932 61.5133513 200.414333 60.9754646 200.414333 70.5835179 199.295355 70.5835179 199.295355 58.1255379 199.877749 58.1255379 205.081511 67.205282 205.194997 67.7357744 205.194997 58.1255379 206.315278 58.1255379 206.315278 70.5835179"></polygon>
                    <path d="M213.852136,67.6826759 L209.902211,67.6826759 L209.082845,70.5835179 L207.918058,70.5835179 L211.572631,58.1255379 L212.163124,58.1255379 L215.836395,70.5835179 L214.678368,70.5835179 L213.852136,67.6826759 Z M210.206436,66.6139094 L213.556503,66.6139094 L211.913089,60.8709576 L211.876258,60.4111342 L211.843617,60.8709576 L210.206436,66.6139094 Z" id="Fill-22" fill="#696C69"></path>
                    <polygon id="Fill-23" fill="#696C69" points="217.2559 70.5835179 217.2559 58.1255379 218.377061 58.1255379 218.377061 69.5152092 223.155542 69.5152092 223.155542 70.5835179"></polygon>
                    <polygon id="Fill-24" fill="#696C69" points="224.940575 70.5835179 224.940575 58.1255379 231.962892 58.1255379 231.962892 59.1943397 226.061947 59.1943397 226.061947 63.8260954 230.840323 63.8260954 230.840323 64.8932774 226.061947 64.8932774 226.061947 69.5152092 231.962892 69.5152092 231.962892 70.5835179"></polygon>
                    <path d="M102.272992,84.7307567 C102.11602,85.1020591 101.894823,85.4271644 101.617253,85.7037486 C101.33838,85.9830089 101.014472,86.2002974 100.637994,86.3587831 C100.264508,86.5202971 99.8631705,86.6003322 99.4422554,86.6003322 L95.4905342,86.6003322 L95.4905342,74.1383734 L99.4422554,74.1383734 C99.8632761,74.1383734 100.264508,74.2197465 100.637994,74.380028 C101.014472,74.5367532 101.33838,74.7553093 101.617253,75.0356964 C101.894929,75.3127735 102.11602,75.6378436 102.272992,76.0138291 C102.433907,76.3828428 102.515034,76.7852016 102.515034,77.2084758 L102.51514,83.5405114 C102.51514,83.9632223 102.433696,84.3599824 102.272992,84.7307567 Z M101.390387,77.2084758 C101.390387,76.9292155 101.33838,76.6706947 101.234577,76.4302724 C101.131373,76.1886177 100.985634,75.9792165 100.804578,75.795273 C100.61993,75.6118929 100.410142,75.4685832 100.167888,75.3658721 C99.9287338,75.2603792 99.6684171,75.2094638 99.3884526,75.2094638 L96.614195,75.2094638 L96.614195,85.5298756 L99.3886639,85.5298756 C99.6684171,85.5298756 99.9287338,85.4796643 100.167888,85.3740659 C100.410142,85.2702632 100.61993,85.1280098 100.804578,84.9484677 C100.985634,84.7685031 101.131268,84.5591019 101.234577,84.3198416 C101.33838,84.0777996 101.390387,83.8187858 101.390387,83.5405114 L101.390387,77.2084758 Z" id="Fill-25" fill="#696C69"></path>
                    <polygon id="Fill-26" fill="#696C69" points="105.186299 86.6003322 106.307495 86.6003322 106.307495 74.1383734 105.186299 74.1383734"></polygon>
                    <path d="M119.127341,86.6003322 L115.741851,81.2836828 L114.19886,81.2836828 L114.19886,86.6003322 L113.079882,86.6003322 L113.079882,74.1383734 L117.038716,74.1383734 C117.461392,74.1383734 117.858046,74.2197465 118.229348,74.380028 C118.603151,74.5367532 118.925228,74.7553093 119.205193,75.0356964 C119.484065,75.3127735 119.702974,75.6378436 119.864347,76.0138291 C120.020156,76.3828428 120.101917,76.7852016 120.101917,77.2084758 L120.101917,78.2146719 C120.101917,78.6368898 120.020156,79.036326 119.864347,79.4094242 C119.703079,79.7836139 119.484065,80.1086136 119.205193,80.386888 C118.925228,80.6651623 118.603151,80.8835424 118.229348,81.0421338 C117.858046,81.2006547 117.461392,81.2836828 117.038716,81.2836828 L120.423818,86.6003322 L119.127341,86.6003322 Z M118.979524,77.2084758 C118.979524,76.9292155 118.925228,76.6706947 118.822623,76.4302724 C118.718327,76.1886177 118.574806,75.9792165 118.397024,75.795273 C118.215968,75.6118929 118.00706,75.4685832 117.763821,75.3658721 C117.524596,75.2603792 117.26449,75.2094638 116.986709,75.2094638 L114.19886,75.2094638 L114.19886,80.2131205 L116.986709,80.2131205 C117.26449,80.2131205 117.524596,80.1618178 117.763821,80.0562193 C118.007166,79.9517124 118.215968,79.8078745 118.397024,79.6284028 C118.574912,79.4437551 118.718116,79.2345652 118.822623,78.9919246 C118.925228,78.7525587 118.979524,78.494073 118.979524,78.2146719 L118.979524,77.2084758 Z" id="Fill-27" fill="#696C69"></path>
                    <polygon id="Fill-28" fill="#696C69" points="122.564168 86.6003322 123.686737 86.6003322 123.686737 74.1383734 122.564168 74.1383734"></polygon>
                    <path d="M133.143065,84.9051579 C132.981058,85.274242 132.764263,85.5986431 132.483805,85.8781146 C132.206341,86.1567763 131.883947,86.3746634 131.510461,86.5331492 C131.139159,86.6941701 130.742188,86.7720221 130.318913,86.7720221 L129.429689,86.7720221 C129.006379,86.7720221 128.608528,86.6941701 128.233634,86.5331492 C127.85786,86.3746634 127.533282,86.1567763 127.255783,85.8781146 C126.978001,85.5986431 126.755642,85.274242 126.599833,84.9051579 C126.438636,84.5336442 126.357791,84.1369897 126.357791,83.7142789 L126.357791,77.0245323 C126.357791,76.6030187 126.438424,76.204498 126.599833,75.8336885 C126.755642,75.4652734 126.978001,75.1391117 127.255783,74.8607318 C127.533458,74.5831616 127.85786,74.3652745 128.233634,74.2060493 C128.608528,74.0446763 129.006379,73.9668242 129.429689,73.9668242 L130.319089,73.9668242 C130.742188,73.9668242 131.138948,74.0446763 131.510461,74.2060493 C131.883947,74.3652745 132.20613,74.5831616 132.483805,74.8607318 C132.764474,75.1389005 132.981058,75.4652734 133.14296,75.8336885 C133.300952,76.204498 133.382326,76.6030187 133.382326,77.0245323 L133.382326,77.529074 L132.257644,77.7016443 L132.257644,77.0245323 C132.257644,76.7463636 132.20613,76.4871385 132.100742,76.2450965 C131.998524,76.00647 131.855215,75.795942 131.67525,75.6175972 C131.496764,75.4364354 131.284581,75.2958017 131.044722,75.1904145 C130.805568,75.0864005 130.542364,75.0356964 130.265287,75.0356964 L129.480992,75.0356964 C129.203703,75.0356964 128.944302,75.0864005 128.704936,75.1904145 C128.462894,75.2958017 128.251697,75.4364354 128.068458,75.6175972 C127.887191,75.795942 127.743881,76.00647 127.638881,76.2450965 C127.533458,76.4871385 127.479268,76.7463636 127.479268,77.0245323 L127.479268,83.7142789 C127.479268,83.9935743 127.533282,84.2516727 127.638881,84.4942076 C127.743881,84.7334679 127.887191,84.9451579 128.068458,85.125721 C128.251697,85.3103687 128.462894,85.4519179 128.704936,85.5564248 C128.944302,85.661812 129.203703,85.7132204 129.480992,85.7132204 L130.265287,85.7132204 C130.542575,85.7132204 130.805392,85.661812 131.044722,85.5564248 C131.284687,85.4519179 131.496764,85.3103687 131.67525,85.125721 C131.855215,84.9451579 131.998524,84.7334679 132.100742,84.4942076 C132.206341,84.2516727 132.257538,83.9935743 132.257538,83.7142789 L132.257644,83.0382584 L133.382326,83.2200188 L133.382326,83.7142789 C133.382326,84.1369897 133.300952,84.5336442 133.143065,84.9051579" id="Fill-29" fill="#696C69"></path>
                    <polygon id="Fill-30" fill="#696C69" points="135.878485 86.6003322 135.878485 74.1383734 142.902914 74.1383734 142.902914 75.2094638 137.001089 75.2094638 137.001089 79.8412195 141.779359 79.8412195 141.779359 80.9076973 137.001089 80.9076973 137.001089 85.5298756 142.902914 85.5298756 142.902914 86.6003322"></polygon>
                    <path d="M150.908399,86.6003322 L147.523297,81.2836828 L145.982101,81.2836828 L145.982101,86.6003322 L144.859638,86.6003322 L144.859638,74.1383734 L148.818436,74.1383734 C149.242837,74.1383734 149.638506,74.2197465 150.011991,74.380028 C150.384561,74.5367532 150.706779,74.7553093 150.986744,75.0356964 C151.263821,75.3127735 151.483891,75.6378436 151.644701,76.0138291 C151.801602,76.3828428 151.881743,76.7852016 151.881743,77.2084758 L151.881743,78.2146719 C151.881743,78.6368898 151.801602,79.036326 151.644701,79.4094242 C151.483891,79.7836139 151.263821,80.1086136 150.986744,80.386888 C150.706779,80.6651623 150.384561,80.8835424 150.011991,81.0421338 C149.638506,81.2006547 149.242837,81.2836828 148.818436,81.2836828 L152.205123,86.6003322 L150.908399,86.6003322 Z M150.760371,77.2084758 C150.760371,76.9292155 150.706779,76.6706947 150.60347,76.4302724 C150.498047,76.1886177 150.354738,75.9792165 150.177871,75.795273 C149.996815,75.6118929 149.786323,75.4685832 149.544281,75.3658721 C149.304422,75.2603792 149.047521,75.2094638 148.768225,75.2094638 L145.982101,75.2094638 L145.982101,80.2131205 L148.768225,80.2131205 C149.047521,80.2131205 149.304316,80.1618178 149.544281,80.0562193 C149.786323,79.9517124 149.996815,79.8078745 150.177871,79.6284028 C150.354738,79.4437551 150.498047,79.2345652 150.60347,78.9919246 C150.706779,78.7525587 150.760371,78.494073 150.760371,78.2146719 L150.760371,77.2084758 Z" id="Fill-31" fill="#696C69"></path>
                    <path d="M160.944832,84.9051579 C160.787825,85.274242 160.566628,85.5986431 160.287755,85.8781146 C160.010185,86.1567763 159.685608,86.3746634 159.316594,86.5331492 C158.943003,86.6941701 158.546137,86.7720221 158.121243,86.7720221 L157.233533,86.7720221 C156.810928,86.7720221 156.4129,86.6941701 156.035401,86.5331492 C155.664098,86.3746634 155.337232,86.1567763 155.059627,85.8781146 C154.780367,85.5986431 154.56248,85.274242 154.401599,84.9051579 C154.24248,84.5336442 154.162234,84.1369897 154.162234,83.7142789 L154.162339,77.0245323 C154.162339,76.6030187 154.242374,76.204498 154.401599,75.8336885 C154.56248,75.4652734 154.780155,75.1391117 155.059627,74.8607318 C155.337408,74.5831616 155.664098,74.3652745 156.035401,74.2060493 C156.4129,74.0446763 156.810717,73.9668242 157.233533,73.9668242 L158.121243,73.9668242 C158.546137,73.9668242 158.942898,74.0446763 159.316594,74.2060493 C159.685608,74.3652745 160.01008,74.5831616 160.287755,74.8607318 C160.566628,75.1389005 160.787825,75.4652734 160.944621,75.8336885 C161.104902,76.204498 161.186874,76.6030187 161.186874,77.0245323 L161.186874,77.529074 L160.06427,77.7016443 L160.06427,77.0245323 C160.06427,76.7463636 160.01008,76.4871385 159.904692,76.2450965 C159.800678,76.00647 159.661946,75.795942 159.479587,75.6175972 C159.298531,75.4364354 159.089728,75.2958017 158.848672,75.1904145 C158.607123,75.0864005 158.349236,75.0356964 158.069272,75.0356964 L157.287829,75.0356964 C157.007864,75.0356964 156.749766,75.0864005 156.508921,75.1904145 C156.267372,75.2958017 156.054063,75.4364354 155.872795,75.6175972 C155.68945,75.795942 155.546141,76.00647 155.442831,76.2450965 C155.337408,76.4871385 155.28593,76.7463636 155.28593,77.0245323 L155.286,83.7142789 C155.286,83.9935743 155.337232,84.2516727 155.442831,84.4942076 C155.546141,84.7334679 155.68945,84.9451579 155.872795,85.125721 C156.054063,85.3103687 156.267372,85.4519179 156.508921,85.5564248 C156.749942,85.661812 157.007864,85.7132204 157.287618,85.7132204 L158.069448,85.7132204 C158.349236,85.7132204 158.607123,85.661812 158.848672,85.5564248 C159.089728,85.4519179 159.298531,85.3103687 159.479587,85.125721 C159.661946,84.9451579 159.800678,84.7334679 159.904692,84.4942076 C160.010185,84.2516727 160.06427,83.9935743 160.06427,83.7142789 L160.06427,83.0382584 L161.186874,83.2200188 L161.186874,83.7142789 C161.186874,84.1369897 161.104902,84.5336442 160.944832,84.9051579" id="Fill-32" fill="#696C69"></path>
                    <path d="M168.364895,83.697307 L164.412575,83.697307 L163.595498,86.6003322 L162.429514,86.6003322 L166.08539,74.1383734 L166.676798,74.1383734 L170.346759,86.6003322 L169.19095,86.6003322 L168.364895,83.697307 Z M164.717892,82.6285406 L168.069261,82.6285406 L166.423383,76.8856944 L166.390742,76.4257653 L166.353981,76.8856944 L164.717892,82.6285406 Z" id="Fill-33" fill="#696C69"></path>
                    <polygon id="Fill-34" fill="#696C69" points="183.733365 86.6003322 183.733365 78.0577707 183.65421 78.5877701 180.756889 86.6003322 180.165481 86.6003322 177.240308 78.5877701 177.172069 78.0577707 177.172069 86.6003322 176.049675 86.6003322 176.049675 74.1383734 176.631964 74.1383734 180.416608 84.3576585 180.452136 84.816496 180.488791 84.3576585 184.262554 74.1383734 184.856814 74.1383734 184.856814 86.6003322"></polygon>
                    <polygon id="Fill-35" fill="#696C69" points="187.702339 86.6003322 187.702339 74.1383734 194.724691 74.1383734 194.724691 75.2094638 188.821951 75.2094638 188.821951 79.8412195 193.603284 79.8412195 193.603284 80.9076973 188.821951 80.9076973 188.821951 85.5298756 194.724691 85.5298756 194.724691 86.6003322"></polygon>
                    <polygon id="Fill-36" fill="#696C69" points="199.892327 75.2094638 199.892327 86.6003322 198.771518 86.6003322 198.771518 75.2094638 195.795253 75.2094638 195.795253 74.1383734 202.870986 74.1383734 202.870986 75.2094638"></polygon>
                    <path d="M210.520132,86.6003322 L207.134819,81.2836828 L205.594152,81.2836828 L205.594152,86.6003322 L204.471547,86.6003322 L204.471547,74.1383734 L208.431578,74.1383734 C208.854184,74.1383734 209.249817,74.2197465 209.622915,74.380028 C209.996612,74.5367532 210.318795,74.7553093 210.595872,75.0356964 C210.875766,75.3127735 211.09573,75.6378436 211.253829,76.0138291 C211.415836,76.3828428 211.493582,76.7852016 211.493582,77.2084758 L211.493793,78.2146719 C211.493793,78.6368898 211.415836,79.036326 211.253829,79.4094242 C211.095942,79.7836139 210.875766,80.1086136 210.595872,80.386888 C210.318795,80.6651623 209.996401,80.8835424 209.622915,81.0421338 C209.250028,81.2006547 208.854184,81.2836828 208.431578,81.2836828 L211.817068,86.6003322 L210.520132,86.6003322 Z M210.370097,77.2084758 C210.370097,76.9292155 210.318795,76.6706947 210.215414,76.4302724 C210.109992,76.1886177 209.966471,75.9792165 209.787598,75.795273 C209.611049,75.6118929 209.397634,75.4685832 209.15612,75.3658721 C208.916261,75.2603792 208.657247,75.2094638 208.379571,75.2094638 L205.594152,75.2094638 L205.594152,80.2131205 L208.379571,80.2131205 C208.657247,80.2131205 208.916261,80.1618178 209.15612,80.0562193 C209.397634,79.9517124 209.611049,79.8078745 209.787598,79.6284028 C209.966471,79.4437551 210.109816,79.2345652 210.215414,78.9919246 C210.318795,78.7525587 210.370097,78.494073 210.370097,78.2146719 L210.370097,77.2084758 Z" id="Fill-37" fill="#696C69"></path>
                    <path d="M220.556566,84.9051579 C220.399171,85.274242 220.180158,85.5986431 219.899806,85.8781146 C219.622024,86.1567763 219.295229,86.3746634 218.926145,86.5331492 C218.555054,86.6941701 218.158082,86.7720221 217.734808,86.7720221 L216.845584,86.7720221 C216.419985,86.7720221 216.024211,86.6941701 215.649529,86.5331492 C215.276043,86.3746634 214.949142,86.1567763 214.671466,85.8781146 C214.392206,85.5986431 214.171537,85.274242 214.013509,84.9051579 C213.85453,84.5336442 213.774178,84.1369897 213.774178,83.7142789 L213.77439,77.0245323 C213.77439,76.6030187 213.854319,76.204498 214.013509,75.8336885 C214.171537,75.4652734 214.392206,75.1391117 214.671466,74.8607318 C214.949142,74.5831616 215.276043,74.3652745 215.649529,74.2060493 C216.024423,74.0446763 216.41988,73.9668242 216.845372,73.9668242 L217.734984,73.9668242 C218.158082,73.9668242 218.554842,74.0446763 218.926145,74.2060493 C219.295335,74.3652745 219.622024,74.5831616 219.899806,74.8607318 C220.180369,75.1389005 220.399171,75.4652734 220.556566,75.8336885 C220.716847,76.204498 220.798185,76.6030187 220.798185,77.0245323 L220.798185,83.7142789 C220.798185,84.1369897 220.716847,84.5336442 220.556566,84.9051579 Z M219.674031,77.0245323 C219.674031,76.7463636 219.622024,76.4871385 219.516426,76.2450965 C219.414419,76.00647 219.273785,75.795942 219.091532,75.6175972 C218.910476,75.4364354 218.700476,75.2958017 218.462906,75.1904145 C218.219068,75.0864005 217.958259,75.0356964 217.681181,75.0356964 L216.899175,75.0356964 C216.619809,75.0356964 216.36069,75.0864005 216.120831,75.1904145 C215.878683,75.2958017 215.665902,75.4364354 215.484846,75.6175972 C215.301008,75.795942 215.157945,76.00647 215.05474,76.2450965 C214.949142,76.4871385 214.897241,76.7463636 214.897241,77.0245323 L214.897346,83.7142789 C214.897346,83.9935743 214.949142,84.2516727 215.05474,84.4942076 C215.158156,84.7334679 215.300797,84.9451579 215.484846,85.125721 C215.666007,85.3103687 215.878683,85.4519179 216.120831,85.5564248 C216.360795,85.661812 216.619704,85.7132204 216.898964,85.7132204 L217.681393,85.7132204 C217.95847,85.7132204 218.219068,85.661812 218.462906,85.5564248 C218.700476,85.4519179 218.910265,85.3103687 219.091532,85.125721 C219.273997,84.9451579 219.414419,84.7334679 219.516426,84.4942076 C219.622024,84.2516727 219.674031,83.9935743 219.674031,83.7142789 L219.674031,77.0245323 Z" id="Fill-38" fill="#696C69"></path>
                    <polygon id="Fill-39" fill="#696C69" points="223.294274 86.6003322 223.294274 74.1383734 224.419167 74.1383734 224.419167 85.5298756 229.195219 85.5298756 229.195219 86.6003322"></polygon>
                    <path d="M237.578097,84.9051579 C237.420104,85.274242 237.202182,85.5986431 236.922218,85.8781146 C236.64514,86.1567763 236.31838,86.3746634 235.948768,86.5331492 C235.576374,86.6941701 235.180635,86.7720221 234.755706,86.7720221 L233.867995,86.7720221 C233.443102,86.7720221 233.046236,86.6941701 232.669863,86.5331492 C232.29856,86.3746634 231.971695,86.1567763 231.692399,85.8781146 C231.413737,85.5986431 231.194653,85.274242 231.035569,84.9051579 C230.876942,84.5336442 230.795604,84.1369897 230.795604,83.7142789 L230.79571,77.0245323 C230.79571,76.6030187 230.876837,76.204498 231.035569,75.8336885 C231.194653,75.4652734 231.413526,75.1391117 231.692399,74.8607318 C231.971871,74.5831616 232.29856,74.3652745 232.669863,74.2060493 C233.046236,74.0446763 233.442996,73.9668242 233.867995,73.9668242 L234.755706,73.9668242 C235.180635,73.9668242 235.576163,74.0446763 235.948768,74.2060493 C236.318486,74.3652745 236.64514,74.5831616 236.922218,74.8607318 C237.202182,75.1389005 237.420104,75.4652734 237.577992,75.8336885 C237.739998,76.204498 237.817921,76.6030187 237.817921,77.0245323 L237.817921,83.7142789 C237.817921,84.1369897 237.739998,84.5336442 237.577992,84.9051579 L237.578097,84.9051579 Z M236.696654,77.0245323 C236.696654,76.7463636 236.64514,76.4871385 236.539542,76.2450965 C236.434155,76.00647 236.295317,75.795942 236.114049,75.6175972 C235.932993,75.4364354 235.721796,75.2958017 235.48486,75.1904145 C235.240424,75.0864005 234.98141,75.0356964 234.703734,75.0356964 L233.919791,75.0356964 C233.642327,75.0356964 233.38201,75.0864005 233.139968,75.1904145 C232.900637,75.2958017 232.688525,75.4364354 232.507257,75.6175972 C232.322821,75.795942 232.179476,76.00647 232.077293,76.2450965 C231.971871,76.4871385 231.918068,76.7463636 231.918068,77.0245323 L231.918279,83.7142789 C231.918279,83.9935743 231.971695,84.2516727 232.077293,84.4942076 C232.179476,84.7334679 232.322821,84.9451579 232.507257,85.125721 C232.688525,85.3103687 232.900637,85.4519179 233.139968,85.5564248 C233.382221,85.661812 233.642327,85.7132204 233.919791,85.7132204 L234.70391,85.7132204 C234.98141,85.7132204 235.240424,85.661812 235.48486,85.5564248 C235.722008,85.4519179 235.932993,85.3103687 236.114049,85.125721 C236.295317,84.9451579 236.433943,84.7334679 236.539542,84.4942076 C236.64514,84.2516727 236.696549,83.9935743 236.696549,83.7142789 L236.696654,77.0245323 Z" id="Fill-40" fill="#696C69"></path>
                    <path d="M247.339038,86.6003322 L246.98351,86.6003322 L246.329039,85.5986431 C246.058652,85.9604385 245.727173,86.24491 245.339603,86.4558957 C244.947949,86.6664237 244.517773,86.7720221 244.040872,86.7720221 L243.389816,86.7720221 C242.964324,86.7720221 242.567353,86.6941701 242.191578,86.5331492 C241.818058,86.3746634 241.491297,86.1567763 241.212424,85.8781146 C240.932636,85.5986431 240.715876,85.274242 240.55665,84.9051579 C240.394749,84.5336442 240.316897,84.1369897 240.316897,83.7142789 L240.316897,77.0245323 C240.316897,76.6030187 240.394679,76.204498 240.55665,75.8336885 C240.715876,75.4652734 240.93246,75.1391117 241.212424,74.8607318 C241.491403,74.5831616 241.818058,74.3652745 242.191578,74.2060493 C242.567564,74.0446763 242.964324,73.9668242 243.389711,73.9668242 L244.275942,73.9668242 C244.701435,73.9668242 245.097984,74.0446763 245.469286,74.2060493 C245.838582,74.3652745 246.166363,74.5831616 246.444039,74.8607318 C246.721116,75.1389005 246.940094,75.4652734 247.099777,75.8336885 C247.259003,76.204498 247.339038,76.6030187 247.339038,77.0245323 L247.339038,77.529074 L246.217666,77.7016443 L246.217666,77.0245323 C246.217666,76.7463636 246.166363,76.4871385 246.060764,76.2450965 C245.955342,76.00647 245.814215,75.795942 245.632948,75.6175972 C245.451997,75.4364354 245.243617,75.2958017 245.003758,75.1904145 C244.761716,75.0864005 244.501505,75.0356964 244.224428,75.0356964 L243.441225,75.0356964 C243.162352,75.0356964 242.903232,75.0864005 242.661789,75.1904145 C242.42193,75.2958017 242.20855,75.4364354 242.027283,75.6175972 C241.84172,75.795942 241.69841,76.00647 241.5951,76.2450965 C241.491403,76.4871385 241.43929,76.7463636 241.43929,77.0245323 L241.439396,83.7142789 C241.439396,83.9935743 241.491297,84.2516727 241.5951,84.4942076 C241.69841,84.7334679 241.84172,84.9451579 242.027283,85.125721 C242.20855,85.3103687 242.421825,85.4519179 242.661789,85.5564248 C242.903338,85.661812 243.162352,85.7132204 243.441014,85.7132204 L244.224428,85.7132204 C244.501505,85.7132204 244.761611,85.661812 245.003758,85.5564248 C245.243793,85.4519179 245.451892,85.3103687 245.632948,85.125721 C245.814215,84.9451579 245.955342,84.7334679 246.060764,84.4942076 C246.166469,84.2516727 246.217666,83.9935743 246.217666,83.7142789 L246.217666,81.1178027 L244.224428,81.1178027 L244.224428,80.048332 L247.339038,80.048332 L247.339038,86.6003322 Z" id="Fill-41" fill="#696C69"></path>
                    <polygon id="Fill-42" fill="#696C69" points="250.019774 86.6003322 251.141146 86.6003322 251.141146 74.1383734 250.019774 74.1383734"></polygon>
                    <path d="M260.599165,84.9051579 C260.438883,85.274242 260.218707,85.5986431 259.941032,85.8781146 C259.661067,86.1567763 259.339377,86.3746634 258.965364,86.5331492 C258.59297,86.6941701 258.197125,86.7720221 257.77452,86.7720221 L256.884591,86.7720221 C256.461916,86.7720221 256.062761,86.6941701 255.688571,86.5331492 C255.312762,86.3746634 254.988185,86.1567763 254.711213,85.8781146 C254.433643,85.5986431 254.213432,85.274242 254.054348,84.9051579 C253.893538,84.5336442 253.815615,84.1369897 253.815615,83.7142789 L253.815615,77.0245323 C253.815615,76.6030187 253.893362,76.204498 254.054348,75.8336885 C254.213432,75.4652734 254.433432,75.1391117 254.711213,74.8607318 C254.988185,74.5831616 255.312762,74.3652745 255.688571,74.2060493 C256.062761,74.0446763 256.46181,73.9668242 256.884591,73.9668242 L257.77452,73.9668242 C258.197125,73.9668242 258.592758,74.0446763 258.965364,74.2060493 C259.339553,74.3652745 259.661067,74.5831616 259.941032,74.8607318 C260.218707,75.1389005 260.438883,75.4652734 260.598989,75.8336885 C260.756594,76.204498 260.837826,76.6030187 260.837826,77.0245323 L260.837826,77.529074 L259.713039,77.7016443 L259.713039,77.0245323 C259.713039,76.7463636 259.661067,76.4871385 259.556138,76.2450965 C259.452934,76.00647 259.309413,75.795942 259.13054,75.6175972 C258.951702,75.4364354 258.740575,75.2958017 258.499132,75.1904145 C258.259202,75.0864005 258.000189,75.0356964 257.722513,75.0356964 L256.936387,75.0356964 C256.658817,75.0356964 256.398535,75.0864005 256.158782,75.1904145 C255.917339,75.2958017 255.707339,75.4364354 255.523888,75.6175972 C255.342727,75.795942 255.199382,76.00647 255.093783,76.2450965 C254.988185,76.4871385 254.934699,76.7463636 254.934699,77.0245323 L254.934769,83.7142789 C254.934769,83.9935743 254.988185,84.2516727 255.093783,84.4942076 C255.199382,84.7334679 255.342727,84.9451579 255.523888,85.125721 C255.707339,85.3103687 255.917233,85.4519179 256.158782,85.5564248 C256.398711,85.661812 256.658711,85.7132204 256.936387,85.7132204 L257.722618,85.7132204 C258.000189,85.7132204 258.259202,85.661812 258.499132,85.5564248 C258.740681,85.4519179 258.951702,85.3103687 259.13054,85.125721 C259.309624,84.9451579 259.452757,84.7334679 259.556138,84.4942076 C259.661067,84.2516727 259.713039,83.9935743 259.713039,83.7142789 L259.713039,83.0382584 L260.837826,83.2200188 L260.837826,83.7142789 C260.837826,84.1369897 260.756594,84.5336442 260.599165,84.9051579" id="Fill-43" fill="#696C69"></path>
                    <path d="M268.015847,83.697307 L264.065922,83.697307 L263.246592,86.6003322 L262.081663,86.6003322 L265.736378,74.1383734 L266.328455,74.1383734 L270,86.6003322 L268.84479,86.6003322 L268.015847,83.697307 Z M264.371168,82.6285406 L267.720214,82.6285406 L266.075039,76.8856944 L266.0418,76.4257653 L266.004969,76.8856944 L264.371168,82.6285406 Z" id="Fill-44" fill="#696C69"></path>
                </g>
            </g>
        </g>
    </g>
</svg>